<svg width="160" height="76" viewBox="0 0 160 76" fill="none" xmlns="http://www.w3.org/2000/svg">
<path d="M50.9766 22.4787H39.0258C34.9506 22.4787 31.0424 24.0975 28.1608 26.9791C25.2793 29.8606 23.6604 33.7689 23.6604 37.844C23.6604 41.9192 25.2793 45.8274 28.1608 48.7089C31.0424 51.5905 34.9506 53.2093 39.0258 53.2093H52.3936C52.9234 53.2093 53.4314 52.9989 53.8061 52.6243C54.1807 52.2497 54.3911 51.7416 54.3911 51.2118V15.9399C54.3947 12.8665 55.4133 9.8804 57.2886 7.44547C59.1639 5.01054 61.7909 3.26314 64.7614 2.47477C67.7319 1.68639 70.8797 1.90118 73.7156 3.08576C76.5515 4.27034 78.9167 6.35839 80.4439 9.02548L95.3653 35.1295V15.9399C95.3689 12.8665 96.3875 9.8804 98.2628 7.44547C100.138 5.01054 102.765 3.26314 105.736 2.47477C108.706 1.68639 111.854 1.90118 114.69 3.08576C117.526 4.27034 119.891 6.35839 121.418 9.02548L136.34 35.1295V1.99158H144.876L146.583 3.69884L148.29 1.99158H156.827V59.7481C156.823 62.8215 155.804 65.8076 153.929 68.2426C152.054 70.6775 149.427 72.4249 146.456 73.2133C143.486 74.0016 140.338 73.7868 137.502 72.6023C134.666 71.4177 132.301 69.3296 130.774 66.6625L115.852 40.5586V59.7481C115.849 62.8215 114.83 65.8076 112.955 68.2426C111.08 70.6775 108.453 72.4249 105.482 73.2133C102.512 74.0016 99.3639 73.7868 96.528 72.6023C93.6921 71.4177 91.3268 69.3296 89.7997 66.6625L74.8782 40.5586V59.7481C74.8782 63.4475 73.4087 66.9953 70.7928 69.6111C68.177 72.2269 64.6292 73.6964 60.9299 73.6964H39.0258C29.5171 73.6964 20.3979 69.9191 13.6743 63.1955C6.95064 56.4719 3.17334 47.3527 3.17334 37.844C3.17334 28.3354 6.95064 19.2161 13.6743 12.4925C20.3979 5.76888 29.5171 1.99158 39.0258 1.99158H50.9766V10.5279L49.2693 12.2351L50.9766 13.9424V22.4787Z" fill="#E7E5E4" fill-opacity="0.3"/>
<path d="M50.9766 12.2351H39.0258C32.2339 12.2351 25.7201 14.9332 20.9175 19.7358C16.1149 24.5384 13.4169 31.0521 13.4169 37.844C13.4169 44.6359 16.1149 51.1496 20.9175 55.9522C25.7201 60.7548 32.2339 63.4529 39.0258 63.4529H60.9299C61.4164 63.4529 61.8981 63.3571 62.3476 63.1709C62.7971 62.9847 63.2055 62.7118 63.5495 62.3678C63.8936 62.0238 64.1664 61.6154 64.3526 61.1659C64.5388 60.7164 64.6346 60.2347 64.6346 59.7481V15.9399C64.636 15.1247 64.9063 14.3327 65.4035 13.6867C65.9007 13.0406 66.5971 12.5767 67.3848 12.3666C68.1725 12.1566 69.0075 12.2122 69.7603 12.5248C70.5132 12.8375 71.1419 13.3898 71.549 14.096L98.6944 61.592C99.1016 62.2982 99.7303 62.8505 100.483 63.1632C101.236 63.4758 102.071 63.5315 102.859 63.3214C103.646 63.1114 104.343 62.6474 104.84 62.0014C105.337 61.3553 105.607 60.5634 105.609 59.7481V15.9399C105.61 15.1247 105.881 14.3327 106.378 13.6867C106.875 13.0406 107.571 12.5767 108.359 12.3666C109.147 12.1566 109.982 12.2122 110.735 12.5248C111.487 12.8375 112.116 13.3898 112.523 14.096L139.669 61.592C140.076 62.2982 140.705 62.8505 141.457 63.1632C142.21 63.4758 143.045 63.5315 143.833 63.3214C144.621 63.1114 145.317 62.6474 145.814 62.0014C146.311 61.3553 146.582 60.5634 146.583 59.7481V1.99158" stroke="white" stroke-width="3.41452"/>
</svg>
