<svg width="152" height="62" viewBox="0 0 152 62" fill="none" xmlns="http://www.w3.org/2000/svg">
<g clip-path="url(#clip0_386_1060)">
<path d="M0 0.5V4.65636H29.5622V0.5H0ZM33.7506 0.5V4.65636H75.8781C75.8781 4.65636 71.575 0.5 65.8758 0.5H33.7506ZM84.1422 0.5V4.65636H109.629L108.116 0.5H84.1422ZM127.901 0.5L126.388 4.65636H151.644V0.5H127.901ZM0 8.58309V12.7395H29.5622V8.58309H0ZM33.7506 8.58901V12.7396H80.7665C80.7665 12.7396 80.2175 9.54066 79.2596 8.58901H33.7506ZM84.1422 8.58901V12.7396H112.423L111.023 8.58901H84.1422ZM124.876 8.58901L123.475 12.7396H151.644V8.58901H124.876ZM8.49543 16.6662V20.8285H21.298V16.6662H8.49543ZM42.2462 16.6662V20.8285H55.0488V16.6662H42.2462ZM67.5013 16.6662V20.8285H80.3039C80.3039 20.8285 81.1167 18.6304 81.1167 16.6662H67.5013ZM92.6378 16.6662V20.8285H115.336L113.823 16.6662H92.6378ZM122.087 16.6662L120.569 20.8285H143.379V16.6662H122.087ZM8.49543 24.7553V28.9117H21.298V24.7553H8.49543ZM42.2462 24.7553V28.9117H74.9467C74.9467 28.9117 77.6822 26.7791 78.5537 24.7553H42.2462ZM92.6378 24.7553V28.9117H105.44V26.598L106.253 28.9117H129.705L130.577 26.598V28.9117H143.38V24.7553H119.346L118.071 28.2758L116.789 24.7553H92.6378ZM8.49543 32.8384V36.9948H21.298V32.8384H8.49543ZM42.2462 32.8384V36.9948H78.5537C77.6821 34.9778 74.9467 32.8384 74.9467 32.8384H42.2462ZM92.6378 32.8384V36.9948H105.44V32.8384H92.6378ZM107.766 32.8384L109.314 36.9948H126.899L128.37 32.8384H107.766ZM130.577 32.8384V36.9948H143.379V32.8384H130.577ZM8.49543 40.9215V45.0777H21.298V40.9215H8.49543ZM42.2462 40.9215V45.0777H55.0488V40.9215H42.2462ZM67.5013 40.9215V45.0777H81.1166C81.1166 43.1163 80.3038 40.9215 80.3038 40.9215H67.5013ZM92.6378 40.9215V45.0777H105.44V40.9215H92.6378ZM110.673 40.9215L112.174 45.0777H123.962L125.475 40.9215H110.673ZM130.577 40.9215V45.0777H143.379V40.9215H130.577ZM0.231306 49.0046V53.1669H29.7935V49.0046H0.231306ZM33.7506 49.0046V53.1669H79.2596C80.2175 52.2139 80.7665 49.0046 80.7665 49.0046H33.7506ZM84.3737 49.0046V53.1669H105.44V49.0046H84.3737ZM113.586 49.0046L115.128 53.1669H121.126L122.574 49.0046H113.586ZM130.577 49.0046V53.1669H151.875V49.0046H130.577ZM0.231306 57.0936V61.25H29.7935V57.0936H0.231306ZM33.7506 57.0936V61.2441H65.8758C71.575 61.2441 75.8781 57.0936 75.8781 57.0936H33.7506ZM84.3737 57.0936V61.25H105.44V57.0936H84.3737ZM116.511 57.0936L117.994 61.2383L118.249 61.2441L119.756 57.0936H116.511ZM130.577 57.0936V61.25H151.875V57.0936H130.577Z" fill="#D6D3D1"/>
</g>
<defs>
<clipPath id="clip0_386_1060">
<rect width="151.875" height="60.75" fill="white" transform="translate(0 0.5)"/>
</clipPath>
</defs>
</svg>
