<svg width="361" height="53" viewBox="0 0 361 53" fill="none" xmlns="http://www.w3.org/2000/svg">
<g clip-path="url(#clip0_386_1063)">
<path d="M0.67395 40.1899H5.81835L5.76435 5.39595L16.1144 40.1899H20.1428L30.4928 5.50755V40.1899H35.9756V1.03275H26.9072L18.296 30.3439L9.73515 1.03275H0.67395V40.1899ZM54.5407 10.4323C46.7647 10.4323 41.6744 15.8575 41.6744 25.6495C41.6744 35.4379 46.7647 40.8091 54.5407 40.8091C62.3167 40.8091 67.4072 35.4379 67.4072 25.6495C67.4072 15.8575 62.3167 10.4323 54.5407 10.4323ZM47.0456 25.6459C47.0456 17.9815 50.1775 14.5147 54.5407 14.5147C58.9615 14.5147 62.036 17.9815 62.036 25.6459C62.036 33.3103 58.9579 36.7231 54.5407 36.7231C50.1775 36.7231 47.0456 33.3103 47.0456 25.6459ZM73.0015 40.1899H78.3727V20.4979C81.1123 16.2463 83.6323 15.0727 86.2027 15.0727C86.8759 15.0727 87.4916 15.1267 87.938 15.2959V10.3207C87.5456 10.2091 86.9299 10.0975 86.2027 10.0975C83.5171 10.0975 80.4427 12.0559 78.3727 15.6919V10.9903H73.0015V40.1899ZM100.801 40.6939C103.99 40.6939 106.284 39.4627 108.465 37.6159V39.7399C108.465 44.7187 106.73 47.7391 101.082 47.7391C97.892 47.7391 95.0984 46.5655 92.69 44.9995L90.5084 49.1935C92.8016 50.7055 97.1648 52.1563 101.359 52.1563C109.081 52.1563 113.944 47.7391 113.944 40.5211V10.9903H108.631V13.3951C106.449 11.6059 104.156 10.4287 100.912 10.4287C94.5908 10.4287 88.9423 14.738 88.9423 25.5883C88.9423 36.4999 94.5944 40.6939 100.801 40.6939ZM94.3135 25.6459C94.3135 17.5891 97.6688 14.5687 101.586 14.5687C104.325 14.5687 106.118 15.5767 108.465 17.6467V33.6451C106.114 35.6575 104.271 36.6115 101.586 36.6655C97.6688 36.6655 94.3135 33.6451 94.3135 25.6459ZM128.1 40.7515C131.008 40.7515 134.086 39.2971 136.545 37.2271C137.326 39.3547 139.173 40.3591 142.14 40.3591C142.867 40.3591 143.594 40.1899 144.264 40.0243V36.1651C143.929 36.2191 143.59 36.2191 143.256 36.2191C142.024 36.2191 141.466 35.6611 141.466 34.4299V19.6627C141.466 14.0683 137.884 10.3747 131.397 10.3747C126.476 10.3747 122.001 12.7255 119.035 16.4155L122.448 19.3243C125.022 16.3039 127.984 14.6803 130.782 14.6803C135.091 14.6803 136.207 17.1427 136.207 20.0515V21.3367L130.389 22.6795C121.886 24.6379 119.031 28.2163 119.031 32.7487C119.038 36.9463 121.893 40.7515 128.1 40.7515ZM124.352 32.5831C124.352 29.8435 125.918 27.8851 130.954 26.5963L136.21 25.3111V33.7567C134.029 35.6035 131.566 36.8887 129.05 36.8887C125.864 36.8923 124.352 34.8763 124.352 32.5831ZM149.077 40.1899H154.502V18.2623C156.795 15.7999 159.258 14.5687 161.828 14.5687C164.456 14.5687 166.36 16.1923 166.36 19.3783V40.1863H171.786V19.6051C171.786 13.5643 168.43 10.3747 163.225 10.3747C160.147 10.3747 157.184 11.4367 154.498 14.0107V10.9903H149.077V40.1899ZM200.262 40.6939C207.534 40.6939 213.632 36.7231 213.632 29.7319C213.632 22.6831 208.876 20.4439 200.712 17.7619C195.79 16.1419 191.985 14.7955 191.985 10.9363C191.985 6.85395 195.175 5.11875 199.088 5.11875C203.228 5.11875 206.583 7.46955 208.376 11.3287L212.793 9.03555C210.165 3.21795 204.906 0.532349 199.088 0.532349C192.208 0.532349 186.445 4.44915 186.445 11.3287C186.445 17.8195 191.143 20.3899 198.584 22.7407C203.955 24.4183 208.038 25.8187 208.038 30.1243C208.038 34.3183 204.459 36.1075 200.262 36.1075C195.506 36.1075 191.647 33.8143 189.634 29.7319L185.271 32.3059C188.011 37.7311 193.659 40.6939 200.262 40.6939ZM228.846 36.2191C226.606 36.2191 225.602 35.3227 225.602 33.2563V15.1303H231.085V10.9903H225.602V2.93715H220.231V10.9939H215.421V15.1339H220.231V34.0987C220.231 38.1811 222.524 40.3627 227.726 40.3627C228.788 40.3627 229.85 40.1935 231.081 39.9703V36.1075C230.188 36.2191 229.742 36.2191 228.846 36.2191ZM243.501 40.7515C246.41 40.7515 249.484 39.2971 251.947 37.2271C252.732 39.3547 254.575 40.3591 257.541 40.3591C258.268 40.3591 258.996 40.1899 259.665 40.0243V36.1651C259.33 36.2191 258.992 36.2191 258.657 36.2191C257.426 36.2191 256.868 35.6611 256.868 34.4299V19.6627C256.868 14.0683 253.29 10.3747 246.799 10.3747C241.878 10.3747 237.403 12.7255 234.436 16.4155L237.849 19.3243C240.423 16.3039 243.386 14.6803 246.183 14.6803C250.492 14.6803 251.608 17.1427 251.608 20.0515V21.3367L245.791 22.6795C237.288 24.6379 234.436 28.2163 234.436 32.7487C234.44 36.9463 237.291 40.7515 243.501 40.7515ZM239.754 32.5831C239.754 29.8435 241.32 27.8851 246.356 26.5963L251.616 25.3111V33.7567C249.434 35.6035 246.972 36.8887 244.455 36.8887C241.262 36.8923 239.754 34.8763 239.754 32.5831ZM264.478 40.1899H269.904V18.2623C272.197 15.7999 274.659 14.5687 277.233 14.5687C279.861 14.5687 281.766 16.1923 281.766 19.3783V40.1863H287.191V19.6051C287.191 13.5643 283.836 10.3747 278.634 10.3747C275.556 10.3747 272.593 11.4367 269.907 14.0107V10.9903H264.482V40.1899H264.478ZM302.235 36.0499C300.334 36.0499 299.496 35.2651 299.496 33.3103V1.03275H294.124V33.9799C294.124 38.0083 296.306 40.3591 301.062 40.3591C302.07 40.3591 303.132 40.2475 304.14 39.9667V35.8843C303.466 35.9959 302.851 36.0499 302.235 36.0499ZM331.158 34.2067L327.129 31.8559C325.282 35.2111 322.878 36.7771 319.688 36.7771C315.436 36.7771 312.304 33.8683 311.97 26.9887H331.492V25.0879C331.492 15.5228 326.625 10.4323 319.411 10.4323C311.858 10.4323 306.602 15.7459 306.602 25.6495C306.602 35.7187 311.862 40.8091 319.58 40.8091C325.228 40.8055 328.584 38.4583 331.158 34.2067ZM319.353 14.5147C323.101 14.5147 325.84 17.0887 326.29 23.0719H312.081C312.697 17.0311 315.548 14.5147 319.353 14.5147ZM338.764 47.7427C337.756 47.7427 336.694 47.4619 335.463 46.9039L334.009 51.0439C335.686 51.8827 337.31 52.1635 339.099 52.1635C343.686 52.1635 346.26 49.8703 348.106 44.6683L360.3 10.9939H354.928L346.929 34.1527L338.761 10.9939H333.112L344.19 40.9207L343.405 42.9907C342.12 46.3459 341.169 47.7427 338.764 47.7427Z" fill="#E7E5E4"/>
</g>
<defs>
<clipPath id="clip0_386_1063">
<rect width="360" height="51.7572" fill="white" transform="translate(0.46875 0.5)"/>
</clipPath>
</defs>
</svg>
