<svg width="100" height="93" viewBox="0 0 100 93" fill="none" xmlns="http://www.w3.org/2000/svg">
<g clip-path="url(#clip0_409_1107)">
<path d="M39.8014 29.7726C39.9885 29.7791 40.1756 29.7857 40.3727 29.7739C40.7896 29.7864 41.1903 29.7901 41.597 29.8211C43.458 29.905 45.3138 30.1536 47.1459 30.4847C49.381 30.8925 51.5909 31.5016 53.7306 32.2394C56.5344 33.1965 59.2403 34.4107 61.8256 35.8459C64.6231 37.3969 67.2901 39.1871 69.7409 41.2178C70.9062 42.1884 72.0248 43.2051 73.1033 44.2956C74.016 45.224 74.8925 46.1802 75.7224 47.1827C77.1423 48.8896 78.4167 50.7081 79.519 52.6477C80.3828 54.1704 81.1373 55.7768 81.7435 57.4219C82.2281 58.7853 82.6335 60.1773 82.8908 61.6078C83.064 62.6103 83.1944 63.6133 83.2294 64.6359C83.2771 65.7131 83.2392 66.7914 83.0998 67.8622C83.0131 68.6032 82.8672 69.3359 82.6889 70.0509C82.4904 70.8026 82.2592 71.5364 81.9691 72.2622C81.5069 73.4194 80.9141 74.5055 80.2234 75.538C79.6695 76.3585 79.044 77.1162 78.3533 77.8381C77.8221 78.3844 77.2419 78.9039 76.6391 79.3871C76.2186 79.7308 75.7915 80.0472 75.3419 80.3275C75.0075 80.5505 74.6657 80.7624 74.3173 80.9628C74.066 81.1124 73.7986 81.2531 73.5311 81.3937C71.596 82.4159 69.5064 83.1389 67.3766 83.6248C67.0065 83.7137 66.6333 83.7889 66.2578 83.8504C65.7907 83.9298 65.3236 84.0093 64.8665 84.0704C64.2417 84.1615 63.6133 84.225 62.983 84.2607C62.2106 84.317 61.4485 84.3549 60.68 84.3654C58.6908 84.3822 56.7031 84.2476 54.7343 83.963C52.3147 83.6217 49.9138 83.0518 47.5771 82.3257C44.3927 81.3281 41.3038 80.0003 38.382 78.4055C35.4276 76.7927 32.6075 74.8951 30.0235 72.72C27.9015 70.9405 25.9229 68.9765 24.1564 66.8175C22.8079 65.1736 21.5951 63.4364 20.5279 61.5877C19.6478 60.0561 18.8834 58.4682 18.2871 56.8046C17.7762 55.4505 17.3972 54.0492 17.1399 52.6187C16.9667 51.6161 16.8363 50.6132 16.7911 49.609C16.7436 48.5318 16.7813 47.4534 16.8945 46.3923C16.9812 45.6512 17.1106 44.9095 17.289 44.1945C17.4791 43.4196 17.7243 42.6592 18.0225 41.9191C18.4847 40.7619 19.0775 39.6758 19.7684 38.6433C20.3222 37.8228 20.9476 37.0653 21.6383 36.3432C22.1897 35.7601 22.7962 35.2311 23.4254 34.7383C23.846 34.3946 24.2893 34.0871 24.7226 33.798C25.0571 33.575 25.3988 33.3631 25.7473 33.1626C25.9985 33.0132 26.266 32.8724 26.5334 32.7317C28.4686 31.7096 30.5744 30.9955 32.7041 30.5096C33.0742 30.4207 33.4474 30.3455 33.823 30.2841C34.3218 30.1934 34.823 30.1164 35.3261 30.0533C35.964 29.9714 36.5919 29.908 37.2097 29.863L38.7768 29.7867C39.033 29.7832 39.2728 29.7708 39.5189 29.7857C39.6143 29.7661 39.716 29.7738 39.8014 29.7726ZM39.6215 33.4014C39.349 33.3961 39.0664 33.4091 38.7839 33.4221L37.2168 33.4984C36.5563 33.544 35.892 33.6354 35.2278 33.7267C34.7179 33.8067 34.208 33.8868 33.7044 33.9942C33.3391 34.0815 32.9573 34.1598 32.6083 34.2559C32.2957 34.3242 31.9892 34.4197 31.6828 34.5153C29.8544 35.0702 28.0827 35.8709 26.4915 36.9616C26.2832 37.1106 26.0746 37.2596 25.8561 37.4271C25.5547 37.6686 25.2533 37.9103 24.9681 38.1609C24.5902 38.504 24.2286 38.8562 23.8894 39.2444C23.3545 39.8363 22.8848 40.464 22.454 41.1366C21.9328 41.9751 21.5095 42.867 21.1779 43.7849C20.9666 44.4037 20.7921 45.0344 20.6553 45.6738C20.5351 46.2843 20.4528 46.9016 20.4089 47.5223C20.2782 49.3145 20.4626 51.1113 20.8805 52.8687C21.1629 54.0979 21.557 55.3164 22.0403 56.4882C22.6354 57.9597 23.3723 59.3655 24.2084 60.7059C25.2318 62.3633 26.4069 63.9367 27.685 65.399C29.2645 67.1903 30.9874 68.8498 32.8365 70.3613C35.1706 72.2564 37.6944 73.9209 40.3488 75.3458C43.0685 76.8067 45.9452 78.0184 48.8972 78.937C51.018 79.593 53.1865 80.0838 55.3801 80.3734C57.1076 80.6237 58.8521 80.7372 60.5975 80.7128C61.3923 80.6927 62.1872 80.6727 62.9859 80.6069C63.6229 80.5536 64.2578 80.4778 64.8895 80.3797C65.3729 80.3092 65.8501 80.2113 66.3273 80.1134L67.4236 79.8517C67.7199 79.7746 68 79.6885 68.28 79.6025C70.092 79.0387 71.8437 78.2747 73.4086 77.1936C73.6434 77.035 73.8782 76.8766 74.1067 76.6908C74.4081 76.4491 74.7096 76.2075 74.9947 75.957C75.3966 75.6081 75.7726 75.2305 76.1198 74.8271C76.6207 74.2592 77.0783 73.6544 77.4887 73.018C77.9998 72.198 78.4395 71.315 78.7711 70.3971C78.9909 69.8002 79.1517 69.1952 79.2798 68.5723C79.41 67.9438 79.5023 67.3081 79.5563 66.6685C79.6871 64.8763 79.5128 63.061 79.1275 61.3216C78.845 60.0924 78.451 58.8739 77.9676 57.7021C77.3725 56.2304 76.6356 54.8246 75.7995 53.4844C74.77 51.7996 73.5785 50.2173 72.2778 48.7189C70.6269 46.8141 68.7736 45.0858 66.8136 43.5142C64.6126 41.7633 62.2583 40.2153 59.7936 38.87C57.3249 37.5222 54.74 36.399 52.0702 35.5141C50.316 34.9378 48.5295 34.4652 46.7199 34.0987C45.0485 33.7836 43.3534 33.5512 41.6469 33.4559C41.2137 33.4344 40.7804 33.4129 40.3635 33.4004C40.1764 33.3939 39.963 33.3967 39.7759 33.3902C39.7332 33.3908 39.6805 33.4098 39.6215 33.4014Z" fill="#D6D3D1"/>
<path d="M50.1081 21.6032C50.4281 21.599 50.7646 21.6038 51.0696 21.6272C51.7587 21.6457 52.4328 21.6917 53.1067 21.7378C55.0336 21.8953 56.919 22.2449 58.7919 22.695C60.2942 23.0859 61.7709 23.5695 63.2135 24.1428C64.4803 24.6554 65.7171 25.2232 66.9086 25.8737C68.0676 26.5063 69.1965 27.1939 70.2802 27.9645C71.367 28.7366 72.4164 29.5601 73.4248 30.4321C74.6305 31.4838 75.7596 32.6367 76.7947 33.8455C77.8297 35.0544 78.7858 36.2915 79.6489 37.6212C80.6139 39.1137 81.4847 40.6622 82.2302 42.2853C82.9405 43.8175 83.5415 45.4332 84.0146 47.0507C84.5592 48.8861 84.9459 50.7783 85.1882 52.6632C85.4312 54.5704 85.5149 56.4944 85.4382 58.4155C85.3526 60.5081 85.0882 62.5895 84.6479 64.6371C84.205 66.613 83.6014 68.5727 82.8345 70.4433C82.3456 71.6488 81.7882 72.8254 81.1651 73.9673C80.4507 75.2754 79.6556 76.5377 78.7842 77.7469C77.8374 79.0544 76.8091 80.3172 75.6816 81.4901C74.1526 83.0878 72.4905 84.5414 70.694 85.8141C68.7421 87.2166 66.6706 88.4109 64.4948 89.3693C62.2563 90.3651 59.9299 91.1339 57.5304 91.6483C55.0518 92.1913 52.5317 92.4608 50.0176 92.4477C48.6245 92.4384 47.2286 92.3561 45.8303 92.2009C44.4156 92.0367 43.0297 91.781 41.6576 91.4612C40.0394 91.0789 38.4533 90.5718 36.9134 89.9445C35.614 89.4141 34.312 88.8107 33.0715 88.1334C31.9921 87.5441 30.9435 86.9001 29.9297 86.2039C28.9289 85.5146 27.9418 84.7611 27.0174 83.9704C25.896 83.0364 24.8509 82.0009 23.8687 80.9282C22.7872 79.7655 21.8149 78.5195 20.904 77.1995C19.9089 75.7621 19.023 74.2413 18.2476 72.6733C17.4041 70.9968 16.7177 69.227 16.1592 67.4556C15.5817 65.6024 15.1462 63.6835 14.8863 61.7531C14.61 59.8139 14.5246 57.8358 14.5685 55.8925C14.6243 53.7596 14.8821 51.6367 15.3385 49.5525C15.7632 47.5742 16.3539 45.6351 17.1043 43.756C17.6342 42.4358 18.261 41.1325 18.953 39.8647C19.6749 38.5419 20.4949 37.2727 21.3803 36.0391C22.2411 34.8443 23.1799 33.7078 24.1907 32.6369C25.7497 30.9842 27.4733 29.4569 29.3324 28.1469C31.2067 26.8092 33.2304 25.6248 35.3421 24.6671C36.8555 23.9909 38.4353 23.3866 40.0202 22.9283C41.5522 22.4808 43.1128 22.1377 44.6911 21.9012C45.8475 21.7135 47.0145 21.5979 48.1852 21.5551C48.5844 21.5226 48.9683 21.5176 49.3524 21.5127C49.5282 21.5012 49.7202 21.4987 49.8809 21.5149C49.9637 21.596 50.0278 21.5951 50.1081 21.6032ZM49.9148 25.2176L49.3388 25.2251C48.9872 25.2478 48.6345 25.2342 48.2831 25.2569C47.2602 25.3067 46.2399 25.4293 45.2359 25.5608C43.691 25.7906 42.1662 26.1387 40.6779 26.6139C39.3791 27.0137 38.0829 27.4866 36.8381 28.0591C34.9473 28.9226 33.1268 29.9677 31.4407 31.1934C29.7774 32.3849 28.2324 33.7336 26.8271 35.2208C25.9165 36.1902 25.0712 37.1954 24.2925 38.2726C23.4988 39.3774 22.7703 40.5178 22.1233 41.7028C21.5052 42.8355 20.9529 44.003 20.469 45.1993C19.7912 46.868 19.2601 48.617 18.8749 50.4097C18.4757 52.2664 18.2548 54.1848 18.1934 56.0827C18.1431 57.8435 18.2371 59.6056 18.4745 61.3511C18.7115 63.0897 19.093 64.8055 19.615 66.4807C20.1196 68.0795 20.7357 69.6676 21.4936 71.1902C22.1999 72.6131 23.0331 73.9979 23.9439 75.3177C24.7345 76.463 25.6074 77.5491 26.5557 78.5675C27.4537 79.5228 28.3832 80.4593 29.3891 81.2947C31.0749 82.7157 32.8995 83.9633 34.8353 85.0187C36.0105 85.6602 37.231 86.2191 38.465 86.7139C39.7631 87.2079 41.0914 87.6468 42.4322 87.9852C43.6273 88.2799 44.8525 88.5195 46.0739 88.6496C47.3768 88.8243 48.6922 88.8985 50.0365 88.8812C52.3095 88.87 54.5749 88.6401 56.7836 88.1647C58.9284 87.69 61.034 87.0152 63.0354 86.1045C64.9902 85.2401 66.8736 84.1578 68.6073 82.9223C70.213 81.7637 71.7106 80.4622 73.0817 79.0337C74.0387 78.0181 74.9303 76.9666 75.7391 75.8342C76.5642 74.7109 77.3227 73.5154 77.9834 72.2664C78.54 71.2467 79.0463 70.1639 79.4886 69.0818C80.1815 67.3856 80.7289 65.6455 81.1155 63.8892C81.5158 62.069 81.7544 60.1961 81.8321 58.307C81.8999 56.5914 81.8222 54.832 81.6025 53.1383C81.383 51.4446 81.0354 49.7526 80.5448 48.0897C80.0931 46.5608 79.5269 45.068 78.851 43.6241C78.1761 42.1825 77.3906 40.7881 76.5111 39.4495C75.7672 38.3281 74.9444 37.2351 74.0601 36.2159C73.0928 35.1156 72.0628 34.0526 70.9565 33.0909C70.0525 32.3116 69.1076 31.5809 68.1259 30.9019C67.1777 30.2415 66.1943 29.633 65.18 29.0792C63.9897 28.4292 62.7555 27.863 61.4863 27.3849C60.3173 26.9257 59.1034 26.5491 57.892 26.2457C56.2599 25.8197 54.5854 25.5495 52.8984 25.3799C52.2558 25.315 51.6143 25.2869 50.9729 25.2588C50.6842 25.2442 50.3956 25.2296 50.1081 25.2516C50.0429 25.2159 49.9788 25.2168 49.9148 25.2176Z" fill="#D6D3D1"/>
<path d="M62.4214 24.9739C62.5418 24.9791 62.6847 24.9756 62.8051 24.9807C63.0817 24.9901 63.3715 25.0071 63.6519 25.0402C64.3769 25.1163 65.0917 25.2698 65.7841 25.4981C66.5584 25.7523 67.3009 26.0945 67.9971 26.5181C68.49 26.8241 68.955 27.1785 69.3883 27.5575C69.6985 27.8439 69.9996 28.1466 70.2913 28.4655C70.4999 28.7147 70.7085 28.9639 70.8944 29.2216C71.033 29.4091 71.1622 29.6124 71.2915 29.8159C72.0459 30.9815 72.583 32.2793 72.9677 33.5967C73.0255 33.8019 73.0833 34.0071 73.1279 34.2046C73.1896 34.4335 73.238 34.6547 73.2905 34.8997C73.3545 35.2158 73.4148 35.5083 73.4657 35.8168C73.5324 36.2205 73.5897 36.64 73.647 37.0596C73.7147 37.614 73.7465 38.1693 73.7691 38.7405C73.7964 39.4865 73.8108 40.2249 73.7893 40.964C73.7541 41.9101 73.6833 42.8569 73.5859 43.7886C73.4363 45.0549 73.247 46.2984 72.9995 47.5514C72.7082 48.9678 72.3617 50.3724 71.9608 51.7618C71.5194 53.2893 71.0026 54.7946 70.437 56.2934C69.7769 58.0166 69.0413 59.7179 68.2437 61.4046C67.4328 63.0839 66.5691 64.7325 65.626 66.3354C64.6775 67.9781 63.6498 69.575 62.5786 71.1255C61.5445 72.6113 60.4576 74.0667 59.3005 75.4602C58.3133 76.6512 57.2866 77.8192 56.2031 78.9329C55.2017 79.9654 54.17 80.9587 53.0815 81.8978C52.3297 82.559 51.5383 83.1972 50.7297 83.8039C49.9212 84.4109 49.0956 84.9864 48.2395 85.523C47.4922 85.9934 46.7409 86.44 45.9553 86.8239C45.2823 87.1654 44.5961 87.4994 43.8889 87.7783C42.7671 88.2257 41.611 88.6104 40.4275 88.829C39.4319 89.0273 38.3982 89.1391 37.3767 89.1076C36.8142 89.105 36.2533 89.0389 35.7017 88.9566C35.1594 88.8582 34.6132 88.736 34.0816 88.5581C33.3105 88.3062 32.5822 87.95 31.9136 87.5211C31.4074 87.2074 30.9517 86.8369 30.5053 86.4504C30.195 86.1638 29.8938 85.8611 29.6114 85.5262C29.4094 85.3024 29.2225 85.0653 29.052 84.8166C28.9266 84.637 28.8012 84.4573 28.6891 84.2852C27.9613 83.1348 27.4187 81.8767 27.0339 80.5595C26.9762 80.3543 26.9184 80.1491 26.8737 79.9516C26.8082 79.699 26.7426 79.4464 26.6995 79.1854C26.6181 78.8377 26.5594 78.4818 26.5007 78.1257C26.4434 77.706 26.3861 77.2864 26.3419 76.8744C26.2743 76.3201 26.2518 75.7487 26.2199 75.1936C26.1925 74.4475 26.2007 73.7007 26.2222 72.9615C26.2574 72.0155 26.3282 71.0687 26.4348 70.121C26.5846 68.8545 26.7831 67.5948 27.0438 66.3496C27.3301 64.9688 27.6652 63.5947 28.0625 62.235C28.5077 60.7312 29.0059 59.2581 29.553 57.7916C30.1798 56.1565 30.8595 54.5519 31.6053 52.9854C32.4198 51.2697 33.3028 49.5875 34.2523 47.9427C35.2171 46.2711 36.248 44.6384 37.3424 43.0485C38.3261 41.6195 39.3851 40.2124 40.4784 38.8681C41.4429 37.6877 42.4505 36.5432 43.4991 35.4369C44.5191 34.3723 45.5694 33.3467 46.6857 32.3592C47.4282 31.7142 48.1745 31.0929 48.9606 30.4945C49.7242 29.9046 50.5047 29.346 51.3159 28.8265C52.0182 28.373 52.7244 27.9433 53.4609 27.5527C54.1525 27.1789 54.8706 26.8203 55.5965 26.5092C56.5514 26.0994 57.5332 25.7551 58.5351 25.4788C59.4064 25.2516 60.3118 25.0873 61.2198 25.0102C61.4568 24.9967 61.7028 24.967 61.9529 24.9612L62.2745 24.9536C62.3501 24.9756 62.3856 24.9747 62.4214 24.9739ZM62.3156 28.6062C62.088 28.6036 61.8643 28.6249 61.6498 28.6299C60.9524 28.6781 60.2666 28.7976 59.6019 28.9722C58.6724 29.2087 57.7812 29.5316 56.9016 29.9256C56.2883 30.1943 55.6923 30.4943 55.1225 30.8096C54.4524 31.1756 53.7998 31.5727 53.1668 31.9996C52.4551 32.4691 51.7699 32.954 51.0926 33.4863C50.3834 34.0431 49.6781 34.6237 48.9992 35.2195C48.0605 36.0518 47.1522 36.9231 46.2967 37.825C45.3271 38.8328 44.4012 39.8874 43.5017 40.957C42.5197 42.1412 41.5847 43.3636 40.6989 44.6213C39.7098 46.0286 38.7713 47.4708 37.8852 48.9451C37.022 50.3793 36.2248 51.8516 35.4805 53.3545C34.7361 54.8574 34.0407 56.3671 33.4115 57.9149C32.8766 59.2381 32.3814 60.5842 31.9483 61.9446C31.5446 63.1932 31.1938 64.4724 30.8787 65.7507C30.5916 66.9807 30.3494 68.1936 30.1732 69.4448C30.0348 70.4172 29.9321 71.3886 29.8783 72.3668C29.8251 73.1285 29.8076 73.8922 29.8257 74.6556C29.839 75.243 29.8616 75.8144 29.9199 76.3849C29.9586 76.8367 30.0238 77.3037 30.0983 77.7547C30.1568 78.1108 30.2251 78.4506 30.3063 78.7983C30.3758 79.0746 30.4454 79.351 30.5243 79.6112C30.5819 79.8163 30.653 80.0292 30.7201 80.2181C30.7793 80.3598 30.8292 80.5174 30.8884 80.659C30.9345 80.7929 30.9899 80.9108 31.0452 81.0286C31.4098 81.8619 31.9004 82.6605 32.5142 83.337C32.6184 83.4616 32.7189 83.5624 32.8325 83.671C32.9896 83.8261 33.156 83.9653 33.3224 84.1042C33.5815 84.2966 33.8403 84.4891 34.1272 84.6332C34.5105 84.8545 34.9216 85.0274 35.3382 85.1605C35.9941 85.3675 36.6925 85.4701 37.3885 85.4855C38.1825 85.5144 38.9793 85.4161 39.755 85.2628C40.2173 85.1644 40.6528 85.0509 41.0977 84.9212C41.6327 84.7577 42.1637 84.5704 42.6776 84.3517C43.302 84.0917 43.9122 83.7989 44.5056 83.4745C45.1973 83.1009 45.8623 82.7118 46.5105 82.2914C47.1928 81.8459 47.8614 81.3797 48.5155 80.8937C49.2951 80.308 50.0509 79.6913 50.7812 79.0451C51.7424 78.2043 52.6601 77.3169 53.5607 76.3982C54.5116 75.4225 55.419 74.4003 56.2867 73.3551C57.2645 72.1803 58.1988 70.9589 59.1027 69.6985C60.1313 68.2523 61.1165 66.7597 62.0225 65.2213C62.8857 63.787 63.6829 62.3147 64.4404 60.8194C65.198 59.3242 65.8802 57.8069 66.5096 56.259C67.0629 54.9036 67.5543 53.5339 68.0059 52.1412C68.4243 50.8366 68.803 49.5092 69.097 48.1758C69.3749 46.9619 69.6131 45.7252 69.7932 44.4977C69.9263 43.5653 70.0196 42.6099 70.0773 41.6554C70.1307 40.8916 70.1348 40.1211 70.1167 39.3591C70.0936 38.7794 70.0578 38.2003 70.0093 37.6222C69.9707 37.1704 69.8962 36.7194 69.8218 36.2684C69.7641 35.9183 69.6946 35.5702 69.6135 35.2248C69.5441 34.9485 69.4746 34.6721 69.3957 34.4118C69.337 34.2075 69.2717 34.005 69.1999 33.8049C69.1406 33.6633 69.0908 33.5057 69.0315 33.3641C68.6472 32.4121 68.1238 31.4872 67.4361 30.725C67.3319 30.6005 67.2049 30.4844 67.0783 30.3682C66.9211 30.213 66.7546 30.074 66.5882 29.9349C66.326 29.7407 66.0529 29.5616 65.7703 29.3984C65.3738 29.1694 64.9533 29.0126 64.5235 28.8718C64.0844 28.7471 63.6401 28.6622 63.177 28.6098C63.0077 28.5978 62.8383 28.5859 62.6822 28.5818C62.5976 28.5758 62.4903 28.5782 62.4057 28.5724C62.4096 28.5961 62.3738 28.597 62.3156 28.6062Z" fill="#D6D3D1"/>
<path d="M65.0283 32.166C65.4364 32.1662 65.8694 32.1721 66.286 32.187C67.4053 32.2291 68.5266 32.3486 69.6412 32.5312C70.6658 32.7065 71.6837 32.9447 72.6628 33.2643C74.0282 33.6953 75.3566 34.2852 76.5589 35.0659L76.1769 35.2441C77.0815 35.9351 77.0815 35.9351 77.9861 36.6261C78.9056 36.9361 79.3325 37.378 79.6864 37.8423C80.2505 38.5588 80.7425 39.3367 81.1294 40.1555C81.4201 40.7705 81.6592 41.4086 81.8442 42.0632C81.9691 42.5025 82.0778 42.9512 82.1456 43.4035C82.2107 43.7394 82.2438 44.0941 82.2843 44.4247C82.307 44.6869 82.321 44.9345 82.3351 45.182C82.4003 46.8944 82.1636 48.6043 81.7052 50.2652C81.6294 50.5056 81.5781 50.7516 81.5021 50.9921C81.4035 51.3047 81.3048 51.6173 81.1901 51.9393C81.0449 52.3572 80.8752 52.77 80.7054 53.1827C80.4794 53.7295 80.2308 54.2667 79.9601 54.7929C79.6406 55.4295 79.3049 56.0756 78.9362 56.7016C78.4499 57.5329 77.9381 58.32 77.3855 59.1111C76.7694 59.9781 76.1363 60.8154 75.47 61.6328C74.7865 62.4592 74.076 63.2629 73.3397 64.0427C72.5276 64.9048 71.6899 65.7227 70.8276 66.5352C69.7988 67.4849 68.734 68.3949 67.6355 69.2632C66.4416 70.208 65.2063 71.118 63.9365 71.969C62.5306 72.9184 61.0906 73.8087 59.6251 74.6549C58.0682 75.534 56.4783 76.3535 54.859 77.1116C53.3974 77.7785 51.8941 78.4105 50.3889 78.9649C48.9319 79.4913 47.4657 79.9643 45.9815 80.3688C44.564 80.7515 43.1308 81.0738 41.6859 81.3346C40.4338 81.5462 39.1647 81.7284 37.9097 81.8237C36.8017 81.9127 35.6681 81.9578 34.5571 81.9304C33.2341 81.9076 31.9092 81.8072 30.6062 81.5961C29.4509 81.4174 28.3098 81.1521 27.1991 80.7903C25.8414 80.3353 24.5291 79.7362 23.3267 78.9554L22.8041 78.6081C22.3223 78.2571 21.864 77.8726 21.4135 77.4642C20.9961 77.0759 20.6185 76.645 20.2484 76.19C19.6929 75.4883 19.2094 74.725 18.8226 73.9062C18.5375 73.3009 18.304 72.6726 18.1247 72.0279C17.9998 71.5886 17.8912 71.1401 17.8233 70.6878C17.7742 70.3424 17.7251 69.9971 17.6846 69.6665C17.6621 69.4043 17.648 69.1568 17.6338 68.9093C17.5686 67.1967 17.8053 65.4868 18.2637 63.826C18.3396 63.5855 18.3909 63.3396 18.4669 63.0991C18.5654 62.7866 18.6641 62.4739 18.7789 62.152C18.924 61.734 19.0938 61.3213 19.2635 60.9086C19.4797 60.3904 19.7205 59.8778 19.9614 59.3651C20.2725 58.7136 20.6166 58.0822 20.9853 57.4564C21.4556 56.6343 21.9836 55.838 22.52 55.0561C23.0725 54.2652 23.6583 53.4944 24.2525 52.7383C24.966 51.8543 25.7053 51.0146 26.4852 50.171C27.3049 49.2849 28.1662 48.4336 29.0608 47.6024C30.0433 46.7009 31.043 45.8287 32.0843 44.9917C33.2139 44.0847 34.3749 43.2176 35.5652 42.392C36.9865 41.4138 38.446 40.4925 39.9403 39.6301C41.3414 38.8211 42.7767 38.0712 44.2213 37.3747C45.755 36.6465 47.3143 35.9626 48.9 35.3618C50.2915 34.8338 51.7086 34.3498 53.1275 33.9436C54.4649 33.5452 55.8204 33.2148 57.1691 32.9474C58.2252 32.7309 59.3069 32.5588 60.3648 32.42C61.3253 32.2981 62.3027 32.2058 63.2894 32.1669C63.7705 32.1447 64.2602 32.1374 64.7499 32.13C64.8568 32.1665 64.9468 32.1736 65.0283 32.166ZM64.8861 35.7877C64.5025 35.7929 64.119 35.7981 63.7438 35.8179C62.8224 35.8583 61.8772 35.9321 60.9576 36.0501C59.9563 36.1757 58.9401 36.3495 57.9324 36.5381C56.665 36.7978 55.4233 37.1018 54.1748 37.4686C52.7805 37.8803 51.3957 38.3455 50.0449 38.8697C48.8154 39.3436 47.5953 39.8711 46.3921 40.428C45.0602 41.0594 43.7293 41.7295 42.4484 42.4493C40.1712 43.7245 37.98 45.1472 35.8886 46.7085C34.0041 48.1308 32.2038 49.6618 30.5124 51.307C29.7889 52.0199 29.0904 52.7577 28.4182 53.5191C27.7823 54.2402 27.1634 54.9908 26.5693 55.7468C25.9253 56.5729 25.3245 57.4317 24.7693 58.3198C24.3446 58.9977 23.9285 59.6902 23.5616 60.3937C23.2725 60.9343 23.0164 61.495 22.7605 62.0558C22.5745 62.4777 22.4057 62.9292 22.2529 63.3713C22.1246 63.7362 22.0082 64.1051 21.9039 64.4775L21.6789 65.3152C21.6191 65.5465 21.5838 65.783 21.5242 66.0143L21.4387 66.5356C21.2712 67.7334 21.2431 68.9492 21.4432 70.1512C21.4725 70.3507 21.5178 70.5409 21.5631 70.731C21.635 71.0042 21.7153 71.2922 21.8118 71.5708C21.9518 71.9619 22.0993 72.329 22.3036 72.683C22.5726 73.1858 22.8902 73.6612 23.2518 74.1022C23.5292 74.4336 23.8386 74.7465 24.1643 75.0501C24.4728 75.3243 24.8136 75.5798 25.146 75.8207C25.6353 76.1476 26.1485 76.4413 26.6767 76.6869C27.3046 76.9931 27.955 77.2272 28.6131 77.4372C29.4435 77.6854 30.3053 77.876 31.1576 78.0134C32.2229 78.1848 33.3025 78.2695 34.3887 78.2913C35.4342 78.317 36.4865 78.2796 37.5377 78.2037C38.6619 78.1053 39.7853 77.9681 40.8991 77.7773C42.2649 77.5393 43.6127 77.2331 44.9511 76.8733C46.343 76.5008 47.7164 76.0622 49.0667 75.5591C50.3939 75.0682 51.704 74.5478 52.9961 73.9592C54.3933 73.3294 55.7726 72.6314 57.1264 71.8892C59.3583 70.6595 61.5137 69.2971 63.5838 67.7873C64.6439 67.0184 65.673 66.2077 66.6688 65.3573C67.5287 64.6254 68.3655 63.8668 69.178 63.0827C69.9334 62.3515 70.6641 61.5951 71.3687 60.8149C72.0412 60.0717 72.6873 59.3051 73.3059 58.5166C73.9516 57.6881 74.5604 56.8314 75.1305 55.949C75.5874 55.2526 76.0115 54.5352 76.4016 53.7992C76.6985 53.2346 76.9866 52.6552 77.2341 52.0796C77.4276 51.6337 77.6125 51.1729 77.7728 50.7068C77.9011 50.342 78.0176 49.973 78.122 49.6006L78.3469 48.7628C78.4067 48.5316 78.4418 48.295 78.5016 48.0639L78.5872 47.5424C78.7707 46.3353 78.7818 45.09 78.5731 43.8733C78.5439 43.6738 78.4985 43.4837 78.4532 43.2935C78.3813 43.0203 78.301 42.7323 78.2045 42.4537C78.0561 42.0479 77.8839 41.6754 77.6872 41.2973C77.4138 40.7866 77.0675 40.2982 76.6813 39.8526C76.3792 39.5156 76.0613 39.1879 75.7196 38.8936C75.3949 38.6288 75.054 38.3732 74.7058 38.1417C74.1916 37.8092 73.6539 37.5101 73.1009 37.259C72.4571 36.9621 71.7905 36.7374 71.1163 36.5366C70.3521 36.329 69.5804 36.1453 68.802 36.0243C67.8991 35.89 66.9896 35.8046 66.0774 35.7685C65.7506 35.7605 65.4401 35.7432 65.1219 35.75C65.0463 35.777 64.9663 35.7898 64.8861 35.7877ZM49.7752 -0.0032959C49.8539 -0.0032959 49.8735 -0.0032959 49.9522 0.0171455C50.0898 0.0375869 50.2471 0.0785998 50.3847 0.140054C50.6401 0.242521 50.8564 0.406443 51.0333 0.590806C51.2104 0.79561 51.3479 1.02099 51.4266 1.28737C51.4659 1.41028 51.4855 1.51262 51.5052 1.63553V13.1081C51.5052 13.1695 51.5052 13.231 51.4855 13.2925C51.4462 13.4973 51.3872 13.7022 51.2889 13.8866C51.2103 14.0505 51.0923 14.1938 50.9744 14.3167C50.7778 14.5011 50.5616 14.6446 50.3061 14.747C50.0505 14.8289 49.7752 14.87 49.5196 14.8494C49.3427 14.8289 49.1658 14.7879 49.0085 14.7265C48.8119 14.6444 48.6349 14.5421 48.4778 14.3988C48.3007 14.2347 48.1632 14.0505 48.0649 13.8251C47.9863 13.6612 47.9273 13.4973 47.9076 13.3129C47.9076 13.2514 47.888 13.19 47.888 13.1285V1.84046V1.6561C47.9075 1.51262 47.9273 1.36927 47.9863 1.22592C48.0846 0.979973 48.2222 0.734156 48.4188 0.549793C48.6154 0.36543 48.8315 0.22208 49.0871 0.119613C49.2247 0.0785998 49.382 0.0375869 49.5196 0.0171455H49.6966C49.7161 -0.0032959 49.7359 -0.0032959 49.7752 -0.0032959ZM77.6965 7.50064C77.7238 7.4927 77.7577 7.51236 77.785 7.50442C77.8463 7.51614 77.8906 7.51809 77.9519 7.52981C78.1188 7.5552 78.2824 7.62602 78.4185 7.70453C78.6672 7.82445 78.8748 8.01532 79.0448 8.23184C79.2047 8.46607 79.3271 8.72595 79.3779 8.99182C79.4016 9.14741 79.415 9.3207 79.3841 9.49218C79.3634 9.64581 79.3325 9.81729 79.2574 9.98681C79.2267 10.0401 79.2232 10.0854 79.1925 10.1385L79.1516 10.2094L73.5484 19.9143L73.5075 19.9852C73.4768 20.0385 73.4562 20.0739 73.4086 20.1174C73.2992 20.2671 73.1458 20.4152 72.9787 20.508C72.795 20.6339 72.5891 20.7236 72.3719 20.7726C72.164 20.8181 71.9322 20.8263 71.704 20.7892C71.4587 20.7422 71.2171 20.6499 70.9957 20.5221C70.7845 20.3766 70.611 20.2054 70.458 19.9987C70.3627 19.8492 70.2844 19.7093 70.2438 19.544C70.186 19.3686 70.1488 19.158 70.1627 18.9767C70.163 18.7403 70.2143 18.5334 70.2929 18.3186C70.3236 18.2653 70.3271 18.22 70.3579 18.1667L70.3989 18.0958L76.0019 8.39108L76.0839 8.24916C76.152 8.17026 76.2305 8.07365 76.2988 7.99475C76.4148 7.87236 76.5546 7.7876 76.6944 7.70271C76.8343 7.61782 76.9978 7.57043 77.1615 7.52291C77.2432 7.49921 77.3148 7.49322 77.4137 7.47929C77.4853 7.4733 77.5022 7.48319 77.5738 7.47708C77.6522 7.49869 77.6794 7.49088 77.6965 7.50064ZM21.8307 7.49218C21.9023 7.49817 21.9192 7.4884 22.0011 7.5121C22.0727 7.51809 22.1714 7.53202 22.2533 7.55572C22.4169 7.60324 22.5635 7.66053 22.7136 7.76312C22.8533 7.84801 22.9863 7.96051 23.1024 8.08277C23.1603 8.14396 23.2182 8.20515 23.2594 8.27598L23.3413 8.4179L28.9443 18.1227C28.9547 18.1404 28.975 18.176 28.9853 18.1937C29.016 18.2469 29.0365 18.2824 29.0503 18.3455C29.1289 18.5603 29.1802 18.7672 29.1805 19.0035C29.1774 19.1947 29.157 19.3954 29.0994 19.5708C29.0222 19.8135 28.8973 20.0384 28.7322 20.2322C28.5689 20.4212 28.3577 20.5668 28.1262 20.6767C27.9798 20.7377 27.806 20.7907 27.6392 20.816C27.4109 20.8532 27.1962 20.8352 26.9712 20.7995C26.754 20.7506 26.5481 20.6607 26.3645 20.5348C26.2089 20.4188 26.065 20.288 25.9346 20.1442C25.9039 20.091 25.8664 20.0653 25.8356 20.0121L25.7948 19.9411L20.1916 10.2364L20.1507 10.1654C20.12 10.1122 20.0994 10.0766 20.0856 10.0136C20.0106 9.84411 19.9593 9.63735 19.9625 9.44622C19.9597 9.28139 19.9709 9.11662 19.9959 8.95367C20.0636 8.67804 20.186 8.41816 20.3562 8.20164C20.5264 7.98512 20.7611 7.80218 21.0098 7.68227C21.1563 7.62147 21.3299 7.56848 21.4967 7.54296C21.5582 7.53124 21.6025 7.52942 21.6638 7.5177C21.6911 7.52551 21.725 7.50598 21.7523 7.51379C21.7591 7.48619 21.7864 7.49426 21.8307 7.49218ZM1.93082 27.7797C2.00374 27.7764 2.02144 27.7867 2.08446 27.8004C2.17508 27.8073 2.25593 27.8312 2.33666 27.855C2.41738 27.8791 2.49823 27.9031 2.56932 27.944L2.71124 28.026L12.4159 33.629L12.4869 33.67C12.5402 33.7008 12.5757 33.7212 12.6191 33.769C12.7946 33.9157 12.9425 34.0692 13.061 34.2738C13.1971 34.4886 13.2684 34.734 13.312 34.9862C13.3379 35.2283 13.3263 35.494 13.2616 35.729C13.2185 35.8856 13.1478 36.0492 13.0513 36.1751C12.9536 36.3457 12.82 36.4932 12.6598 36.6073C12.4808 36.7537 12.2859 36.8455 12.0733 36.927C11.8607 36.9932 11.6374 37.0184 11.4154 37.0012C11.2226 36.9784 11.0326 36.9371 10.8478 36.8778C10.7946 36.847 10.7493 36.8436 10.696 36.8129L10.625 36.7719L0.920343 31.1689C0.902636 31.1585 0.867091 31.1382 0.849384 31.1279C0.796132 31.0971 0.760588 31.0767 0.717231 31.0289C0.567501 30.9196 0.419464 30.7662 0.326632 30.5991C0.206327 30.4389 0.141097 30.2649 0.0857621 30.074C0.0382391 29.9105 0.0183185 29.7401 0.0162354 29.5799C0.0257399 29.3585 0.0629771 29.1302 0.153336 28.9327C0.225987 28.7249 0.361656 28.5309 0.505266 28.3641C0.624771 28.2441 0.757463 28.138 0.900813 28.0477C1.11538 27.9218 1.3556 27.8336 1.6117 27.7998C1.66678 27.7862 1.71209 27.7897 1.785 27.7863C1.8126 27.7795 1.83031 27.7898 1.87562 27.7933C1.86781 27.766 1.89528 27.7592 1.93082 27.7797ZM98.2449 27.7686C98.2725 27.7754 98.3001 27.7821 98.3178 27.7718C98.373 27.7855 98.4183 27.782 98.4911 27.7853C98.6742 27.8157 98.8771 27.8803 99.0444 27.9652C99.2492 28.074 99.4185 28.2033 99.5718 28.387C99.7057 28.5368 99.804 28.7072 99.8845 28.8877C99.9454 29.0341 99.9984 29.2078 99.9962 29.368C100.022 29.5349 100.002 29.7052 99.9818 29.8757C99.954 30.0733 99.8888 30.2472 99.7961 30.4142C99.6875 30.6358 99.5138 30.827 99.3206 30.9839C99.2673 31.0146 99.2417 31.0521 99.1884 31.0828L99.1175 31.1238L89.4127 36.7269L89.3418 36.7679C89.2885 36.7986 89.2531 36.819 89.19 36.8327C89.0205 36.908 88.8137 36.9593 88.6226 36.9561C88.4005 36.9734 88.1773 36.9482 87.9647 36.8819C87.7509 36.8129 87.5519 36.7044 87.378 36.5623C87.2451 36.4569 87.1267 36.3345 87.0258 36.1981C86.8802 35.9872 86.7702 35.7554 86.7232 35.5103C86.6763 35.265 86.6745 35.0162 86.736 34.7538C86.7736 34.5731 86.8466 34.3721 86.9494 34.2219C87.0678 34.0174 87.2158 33.8639 87.3913 33.7172C87.4444 33.6864 87.47 33.6489 87.5233 33.6182L87.5942 33.5772L97.2991 27.9742L97.441 27.8921C97.5751 27.8375 97.6912 27.7932 97.8351 27.7554C97.9146 27.7332 97.9971 27.7239 98.0795 27.7278C98.107 27.7346 98.1248 27.7245 98.1701 27.7209C98.1896 27.755 98.2172 27.7618 98.2449 27.7686Z" fill="#D6D3D1"/>
</g>
<defs>
<clipPath id="clip0_409_1107">
<rect width="100" height="92.52" fill="white"/>
</clipPath>
</defs>
</svg>
